<?xml version="1.0" encoding="UTF-8"?>
<svg xmlns="http://www.w3.org/2000/svg" version="1.1" viewBox="0 0 288 87.6992">
  <defs>
    <style>
      .cls-1 {
        fill: #3e3935;
      }

      .cls-1, .cls-2, .cls-3, .cls-4 {
        stroke-width: 0px;
      }

      .cls-2 {
        fill: #48a739;
      }

      .cls-3 {
        fill: #05a1c6;
      }

      .cls-4 {
        fill: #fff;
      }
    </style>
  </defs>
  <g id="Logo">
    <g>
      <path class="cls-1" d="M76.2637,3.415c8.1718,0,12.1181,4.836,12.1181,11.0069,0,4.3349-1.9453,7.1699-4.8916,8.4492,3.0572,1.334,4.8916,4.2812,4.8916,8.4492,0,6.1709-3.9463,11.0059-12.1181,11.0059h-16.7324V3.415h16.7324ZM75.9858,12.8643h-7.0044v5.2812h6.8374c1.8902,0,3.1133-1,3.1133-2.7236,0-1.4453-.8896-2.5576-2.9463-2.5576ZM75.8188,27.5967h-6.8374v5.2812h7.0044c2.0567,0,2.9463-1.0566,2.9463-2.5576,0-1.7793-1.2231-2.7236-3.1133-2.7236Z"/>
      <path class="cls-1" d="M110.2314,3.415c5.2813,0,10.4512,1.6123,14.2862,5.2256l-4.6133,8.6162c-2.9463-3.1132-6.0039-4.3925-9.6729-4.3925-5.892,0-10.1171,4.1142-10.1171,10.0068s4.1694,10.0068,10.062,10.0068c3.5019,0,7.1152-1.2236,10.3393-4.9482l4.7808,8.7275c-4.0025,3.669-9.1167,5.669-14.9536,5.669-11.3404,0-19.6787-8.3926-19.6787-19.5108S99.0581,3.415,110.2314,3.415Z"/>
      <path class="cls-1" d="M169.27249,3.415v38.9112h-9.4493v-14.7295h-13.9531v14.7295h-9.4502V3.415h9.4502v14.7305h13.9531V3.415h9.4493Z"/>
      <path class="cls-1" d="M177.70609,51.0928l5.7363-12.9346-11.7432-23.625h10.3535l6.003,13.2295,5.8369-13.2295h9.3945l-16.2422,36.5596h-9.3388Z"/>
      <path class="cls-1" d="M232.36039,3.415v38.9112h-8.8946v-3.7793c-2.001,2.8349-5.1142,4.5019-8.9492,4.5019-6.39259,0-12.1738-4.8906-12.1738-14.6191s5.7256-14.6201,12.0068-14.6201c4.2803,0,7.4492,2.1133,9.1162,4.6699V3.415h8.8946ZM211.459,28.4297c0,3.6689,2.83589,5.8379,6.05959,5.8379s6.0585-2.169,6.0585-5.8379-2.8349-5.8369-6.0585-5.8369-6.05959,2.1679-6.05959,5.8369Z"/>
      <path class="cls-1" d="M253.65429,13.8652c1.0566,0,1.835.167,2.6689.4453v9.6172c-1.0009-.3896-2.3906-.5556-3.61319-.5556-4.003,0-6.33791,1.834-6.33791,6.6699v12.2842h-8.8946V14.5332h8.5616v4.8359c1.3896-3.3349,3.7246-5.5039,7.6152-5.5039Z"/>
      <path class="cls-1" d="M272.82419,13.8652c8.6719,0,15.17581,5.6709,15.17581,14.5645,0,8.8945-6.50391,14.5644-15.17581,14.5644s-15.1758-5.6699-15.1758-14.5644c0-8.8936,6.5039-14.5645,15.1758-14.5645ZM272.82419,22.5928c-3.2236,0-6.0596,2.1679-6.0596,5.8369s2.836,5.8379,6.0596,5.8379c3.2246,0,6.0586-2.169,6.0586-5.8379s-2.834-5.8369-6.0586-5.8369Z"/>
    </g>
    <g>
      <path class="cls-1" d="M69.0972,60.3467c5.2246,0,9.0664,3.8418,9.0664,9.0664s-3.8418,9.0664-9.0664,9.0664h-6.1084v8.7588h-3.4575v-26.8916h9.5659ZM69.0972,63.8037h-6.1084v11.2188h6.1084c3.1118,0,5.6089-2.3438,5.6089-5.6094,0-3.2647-2.4971-5.6094-5.6089-5.6094Z"/>
      <path class="cls-1" d="M90.6357,67.5693c5.7627,0,10.065,4.3028,10.065,10.0645,0,5.7627-4.3023,10.0654-10.065,10.0654s-10.0649-4.3027-10.0649-10.0654c0-5.7617,4.3022-10.0645,10.0649-10.0645ZM90.6357,70.7578c-3.9951,0-6.6455,2.8799-6.6455,6.876,0,3.9951,2.6504,6.8769,6.6455,6.8769s6.6465-2.8818,6.6465-6.8769c0-3.9961-2.6513-6.876-6.6465-6.876Z"/>
      <path class="cls-1" d="M109.9995,87.2383l-7.8755-19.208h3.7647l5.4555,14.2519,5.8394-14.2519h2.3818l5.8389,14.2519,5.4551-14.2519h3.7646l-7.8755,19.208h-2.5351l-5.8389-13.791-5.8393,13.791h-2.5357Z"/>
      <path class="cls-1" d="M145.5967,67.5693c6.0312,0,9.2197,4.3789,9.2197,10.0645v.999h-15.3677v.0391c.1914,3.9179,3.0352,5.9531,6.3013,5.9531,2.8057,0,4.7637-1.3818,6.1094-2.957l1.7285,2.5742c-1.5361,1.7285-4.1104,3.457-7.6836,3.457-5.8022,0-9.7979-3.8418-9.7979-9.9121,0-5.6465,3.6875-10.2178,9.4903-10.2178ZM145.6348,70.6416c-3.6128,0-5.5718,2.1523-6.0323,5.3408h11.6036c-.3077-3.1885-2.1143-5.3408-5.5713-5.3408Z"/>
      <path class="cls-1" d="M168.24609,67.5693c.6533,0,1.2676.0762,1.8818.1924v3.4942c-.6533-.1534-1.2285-.2295-1.92089-.2295-4.30271,0-5.64841,2.9209-5.64841,7.2607v8.9512h-3.3037v-19.208h3.1894v2.8818c1.1914-2.1133,3.1123-3.3428,5.8018-3.3428Z"/>
      <path class="cls-1" d="M191.73049,67.5693c3.8027,0,6.18451,1.6143,7.6054,4.1495l-2.7275,1.7285c-.8066-1.5752-2.3037-2.8057-4.9541-2.8057-2.15229,0-3.8027.8848-3.8027,2.4209,0,1.8057,1.958,2.3057,4.5703,2.8809,3.1894.6923,6.914,1.3828,6.914,5.8007,0,4.1104-3.1884,5.9551-7.374,5.9551-3.5742,0-6.9531-1.3457-8.4912-4.4951l2.7275-1.7285c1.1534,2.3818,3.4961,3.1494,5.8389,3.1494,2.4971,0,3.9961-.8437,3.9961-2.6494,0-1.9219-1.7285-2.3438-4.2646-2.8818-3.1495-.6534-7.2227-1.6143-7.2227-5.8389,0-3.3809,2.6895-5.6856,7.1846-5.6856Z"/>
      <path class="cls-1" d="M226.78219,67.5693c5.378,0,7.4532,3.418,7.4532,8.6036v11.0654h-3.3428v-11.4873c0-3.3028-1.499-5.1094-4.4561-5.1094-4.3789,0-5.68549,3.3428-5.68549,7.6455v8.9512h-3.30371v-11.4873c0-3.3028-1.5371-5.1094-4.5332-5.1094-4.3789,0-5.5713,3.4199-5.5713,7.6455v8.9512h-3.30279v-19.208h3.18849v2.6894c1.1914-1.9599,3.2666-3.1504,6.1084-3.1504,3.2647,0,5.2637,1.5362,6.2998,3.8037,1.499-2.2675,3.5352-3.8037,7.1455-3.8037Z"/>
      <path class="cls-1" d="M246.78909,67.5693c5.2998,0,7.7207,2.6114,7.7207,7.1827v12.4863h-3.3037v-2.7276c-1.3057,1.96-3.5342,3.1104-6.2989,3.1104-4.1494,0-6.53119-2.5723-6.53119-5.9531,0-3.5733,2.65039-5.5703,6.18449-5.917l5.417-.5362c.8829-.0781,1.2286-.3847,1.2286-1.038v-.5c0-1.8819-1.4209-3.1495-4.2637-3.1495-2.65039,0-4.5342,1.0752-4.9561,3.4571l-2.9199-1.5752c.7305-2.8428,3.0732-4.8399,7.7227-4.8399ZM251.20609,78.0576l-6.2618.7676c-2.15129.2686-3.11129,1.46-3.11129,2.8818,0,1.6504,1.22849,2.8037,3.57329,2.8037,3.6494,0,5.7998-2.6132,5.7998-5.0322v-1.4209Z"/>
      <path class="cls-1" d="M269.03219,67.5693c.6533,0,1.2676.0762,1.8819.1924v3.4942c-.6534-.1534-1.2286-.2295-1.9209-.2295-4.3028,0-5.6485,2.9209-5.6485,7.2607v8.9512h-3.30269v-19.208h3.18849v2.8818c1.1914-2.1133,3.1123-3.3428,5.8017-3.3428Z"/>
      <path class="cls-1" d="M282.85159,87.4307c-3.4961,0-5.3008-1.4991-5.3008-5.5703v-10.9483h-3.80279v-2.8818h3.80279v-5.1485h3.3037v5.1485h5.2637v2.8818h-5.2637v11.1387c0,1.4599.5762,2.3056,2.1894,2.3056,1.2286,0,2.0743-.1142,3.1114-.3066v2.918c-.9981.2705-2.0752.4629-3.3037.4629Z"/>
    </g>
  </g>
  <g id="Layer_2" data-name="Layer 2">
    <g>
      <circle class="cls-4" cx="22.5036" cy="22.5036" r="22.5036"/>
      <path class="cls-3" d="M22.5036,45.0072c11.96164,0,21.73938-9.32913,22.46192-21.10587-3.09609.03122-6.19855-.05864-9.26725.4934-2.25943.40642-3.70408,1.59334-4.25168,3.94842-.12665.54434-2.4983,9.34881-2.52449,9.45073-.17098.66545-.38828,1.37964-1.2845,1.37964-.96683,0-1.14832-.71033-1.2993-1.37537-.01583-.06971-1.74477-10.06886-2.04178-11.15659-.26537-.97176-1.03017-1.62243-1.79293-1.62243-.76277,0-1.52756.65067-1.79293,1.62243-.29701,1.08773-2.02595,11.08688-2.04178,11.15659-.15098.66504-.33247,1.37537-1.2993,1.37537-.89621,0-1.11352-.71419-1.2845-1.37964-.02619-.10192-2.39784-8.90639-2.52449-9.45073-.54759-2.35508-1.99224-3.542-4.25168-3.94842-3.0687-.55204-6.17117-.46218-9.26725-.4934.72254,11.77673,10.50028,21.10587,22.46192,21.10587"/>
      <path class="cls-2" d="M22.5036,0c11.96164,0,21.73938,9.32913,22.46192,21.10587-3.09609-.03122-6.19855.05864-9.26725-.4934-2.25943-.40642-3.70408-1.59334-4.25168-3.94842-.12665-.54434-2.4983-9.34881-2.52449-9.45073-.17098-.66545-.38828-1.37964-1.2845-1.37964-.96683,0-1.14832.71033-1.2993,1.37537-.01583.06971-1.74477,10.06886-2.04178,11.15659-.26537.97176-1.03017,1.62243-1.79293,1.62243-.76277,0-1.52756-.65067-1.79293-1.62243-.29701-1.08773-2.02595-11.08688-2.04178-11.15659-.15098-.66504-.33247-1.37537-1.2993-1.37537-.89621,0-1.11352.71419-1.2845,1.37964-.02619.10192-2.39784,8.90639-2.52449,9.45073-.54759,2.35508-1.99224,3.542-4.25168,3.94842-3.0687.55204-6.17117.46218-9.26725.4934C.76422,9.32913,10.54196,0,22.5036,0"/>
    </g>
  </g>
</svg>