<?xml version="1.0" encoding="UTF-8" standalone="no"?>
<svg width="16px" height="16px" viewBox="0 0 16 16" version="1.1" xmlns="http://www.w3.org/2000/svg" xmlns:xlink="http://www.w3.org/1999/xlink">
    <!-- Generator: Sketch 3.8.3 (29802) - http://www.bohemiancoding.com/sketch -->
    <title>bch-logo</title>
    <desc>Created with Sketch.</desc>
    <defs>
        <polygon id="path-1" points="11 10.0979 11 0.3889 0.8824 0.3889 0.8824 10.0979 11 10.0979"></polygon>
        <polygon id="path-3" points="0.3689 7 6.6059 7 6.6059 0.2901 0.3689 0.2901 0.3689 7"></polygon>
    </defs>
    <g id="Symbols" stroke="none" stroke-width="1" fill="none" fill-rule="evenodd">
        <g id="Global-nav-footer" transform="translate(-30.000000, -16.000000)">
            <g id="Global-nav-footer-default">
                <g id="bch-logo" transform="translate(30.000000, 16.000000)">
                    <path d="M3.6841,6.71 C4.1371,6.467 4.4061,6.312 4.5761,5.4 L5.4321,2.275 C5.4631,2.144 5.5501,2.028 5.7531,2.028 C5.8971,2.028 6.1291,2.146 6.1531,2.275 L6.8441,6.103 C6.9671,6.509 7.2371,6.684 7.5401,6.684 C7.8431,6.684 8.1151,6.509 8.2371,6.103 L8.9201,2.275 C8.9501,2.146 9.1781,2.028 9.3301,2.028 C9.5331,2.028 9.6211,2.144 9.6461,2.275 L10.5021,5.4 C10.6771,6.312 10.9431,6.467 11.3991,6.71 C12.0401,7.058 13.8921,7.041 14.9711,7.036 C14.7301,3.111 11.4721,-3.55271368e-15 7.4861,-3.55271368e-15 C3.5001,-3.55271368e-15 0.2411,3.111 0.0011,7.036 C1.1691,7.041 3.0891,7.032 3.6841,6.71" id="Fill-1" fill="#05a1c6"></path>
                    <path d="M11.3994,8.2943 C10.9434,8.5303 10.6774,8.6783 10.5024,9.5943 L9.7334,12.7223 C9.7084,12.8633 9.5334,12.9753 9.3294,12.9753 C9.1784,12.9683 8.9504,12.8473 8.9204,12.7223 L8.2364,8.8613 C8.1144,8.4443 7.8434,8.2743 7.5394,8.2743 C7.2364,8.2743 6.9664,8.4443 6.8444,8.8613 L6.1534,12.7223 C6.1284,12.8473 5.8964,12.9683 5.7534,12.9753 C5.5494,12.9753 5.3754,12.8633 5.3464,12.7223 L4.5764,9.5943 C4.4064,8.6783 4.1364,8.5303 3.6844,8.2943 C3.0884,7.9703 1.1684,7.9573 0.0004,7.9613 C0.2374,11.8903 3.4974,15.0043 7.4854,15.0043 C11.4514,15.0043 14.6944,11.9263 14.9674,8.0333 C13.8874,8.0223 12.0384,7.9473 11.3994,8.2943" id="Fill-3" fill="#05a1c6"></path>
                    <path d="M25.2729,9.0986 L22.9939,9.0986 L22.9939,10.8586 L25.3289,10.8586 C26.0139,10.8586 26.3109,10.5066 26.3109,10.0066 C26.3109,9.4136 25.9029,9.0986 25.2729,9.0986 L25.2729,9.0986 Z M25.3289,4.1876 L22.9939,4.1876 L22.9939,5.9486 L25.2729,5.9486 C25.9029,5.9486 26.3109,5.6146 26.3109,5.0406 C26.3109,4.5586 26.0139,4.1876 25.3289,4.1876 L25.3289,4.1876 Z M25.4209,1.0376 C28.1449,1.0376 29.4609,2.6496 29.4609,4.7066 C29.4609,6.1516 28.8119,7.0966 27.8299,7.5236 C28.8489,7.9676 29.4609,8.9506 29.4609,10.3396 C29.4609,12.3966 28.1449,14.0086 25.4209,14.0086 L19.8439,14.0086 L19.8439,1.0376 L25.4209,1.0376 Z" id="Fill-5" fill="#05a1c6"></path>
                    <path d="M36.7438,1.0381 C38.5038,1.0381 40.2278,1.5751 41.5058,2.7801 L39.9678,5.6521 C38.9858,4.6141 37.9668,4.1881 36.7438,4.1881 C34.7798,4.1881 33.3718,5.5591 33.3718,7.5231 C33.3718,9.4881 34.7608,10.8591 36.7258,10.8591 C37.8928,10.8591 39.0968,10.4511 40.1718,9.2101 L41.7658,12.1191 C40.4318,13.3421 38.7268,14.0081 36.7808,14.0081 C33.0008,14.0081 30.2218,11.2111 30.2218,7.5051 C30.2218,3.7991 33.0198,1.0381 36.7438,1.0381" id="Fill-7" fill="#05a1c6"></path>
                    <polygon id="Fill-9" fill="#05a1c6" points="56.4242 1.0381 56.4242 14.0081 53.2742 14.0081 53.2742 9.0991 48.6232 9.0991 48.6232 14.0081 45.4732 14.0081 45.4732 1.0381 48.6232 1.0381 48.6232 5.9481 53.2742 5.9481 53.2742 1.0381"></polygon>
                    <polygon id="Fill-11" fill="#05a1c6" points="59.2354 16.9307 61.1474 12.6187 57.2334 4.7437 60.6844 4.7437 62.6854 9.1537 64.6314 4.7437 67.7624 4.7437 62.3484 16.9307"></polygon>
                    <path d="M70.4863,9.3763 C70.4863,10.5993 71.4313,11.3223 72.5063,11.3223 C73.5803,11.3223 74.5253,10.5993 74.5253,9.3763 C74.5253,8.1533 73.5803,7.4303 72.5063,7.4303 C71.4313,7.4303 70.4863,8.1533 70.4863,9.3763 L70.4863,9.3763 Z M77.4533,1.0383 L77.4533,14.0083 L74.4883,14.0083 L74.4883,12.7483 C73.8213,13.6933 72.7843,14.2493 71.5053,14.2493 C69.3743,14.2493 67.4473,12.6193 67.4473,9.3763 C67.4473,6.1333 69.3563,4.5033 71.4503,4.5033 C72.8763,4.5033 73.9333,5.2073 74.4883,6.0593 L74.4883,1.0383 L77.4533,1.0383 Z" id="Fill-13" fill="#05a1c6"></path>
                    <path d="M84.5514,4.5215 C84.9034,4.5215 85.1634,4.5775 85.4414,4.6695 L85.4414,7.8755 C85.1074,7.7455 84.6444,7.6905 84.2364,7.6905 C82.9024,7.6905 82.1244,8.3015 82.1244,9.9135 L82.1244,14.0085 L79.1594,14.0085 L79.1594,4.7445 L82.0134,4.7445 L82.0134,6.3565 C82.4764,5.2445 83.2544,4.5215 84.5514,4.5215" id="Fill-15" fill="#05a1c6"></path>
                    <g id="Group-19" transform="translate(85.000000, 4.132800)">
                        <mask id="mask-2" fill="white">
                            <use xlink:href="#path-1"></use>
                        </mask>
                        <g id="Clip-18"></g>
                        <path d="M5.9414,3.2979 C4.8664,3.2979 3.9214,4.0209 3.9214,5.2439 C3.9214,6.4669 4.8664,7.1899 5.9414,7.1899 C7.0164,7.1899 7.9614,6.4669 7.9614,5.2439 C7.9614,4.0209 7.0164,3.2979 5.9414,3.2979 M5.9414,0.3889 C8.8324,0.3889 11.0004,2.2789 11.0004,5.2439 C11.0004,8.2079 8.8324,10.0979 5.9414,10.0979 C3.0504,10.0979 0.8824,8.2079 0.8824,5.2439 C0.8824,2.2789 3.0504,0.3889 5.9414,0.3889" id="Fill-17" fill="#05a1c6" mask="url(#mask-2)"></path>
                    </g>
                    <path d="M23.0324,21.1676 L20.9964,21.1676 L20.9964,24.9076 L23.0324,24.9076 C24.0694,24.9076 24.9024,24.1256 24.9024,23.0376 C24.9024,21.9496 24.0694,21.1676 23.0324,21.1676 L23.0324,21.1676 Z M23.0324,20.0156 C24.7744,20.0156 26.0544,21.2956 26.0544,23.0376 C26.0544,24.7786 24.7744,26.0596 23.0324,26.0596 L20.9964,26.0596 L20.9964,28.9796 L19.8434,28.9796 L19.8434,20.0156 L23.0324,20.0156 Z" id="Fill-20" fill="#05a1c6"></path>
                    <path d="M30.2119,23.4857 C28.8799,23.4857 27.9969,24.4457 27.9969,25.7777 C27.9969,27.1097 28.8799,28.0697 30.2119,28.0697 C31.5439,28.0697 32.4269,27.1097 32.4269,25.7777 C32.4269,24.4457 31.5439,23.4857 30.2119,23.4857 M30.2119,22.4227 C32.1329,22.4227 33.5669,23.8567 33.5669,25.7777 C33.5669,27.6987 32.1329,29.1327 30.2119,29.1327 C28.2909,29.1327 26.8569,27.6987 26.8569,25.7777 C26.8569,23.8567 28.2909,22.4227 30.2119,22.4227" id="Fill-22" fill="#05a1c6"></path>
                    <polygon id="Fill-24" fill="#05a1c6" points="36.6665 28.9792 34.0415 22.5762 35.2965 22.5762 37.1145 27.3272 39.0615 22.5762 39.8555 22.5762 41.8015 27.3272 43.6195 22.5762 44.8745 22.5762 42.2495 28.9792 41.4045 28.9792 39.4585 24.3822 37.5115 28.9792"></polygon>
                    <g id="Group-28" transform="translate(45.000000, 22.132800)">
                        <mask id="mask-4" fill="white">
                            <use xlink:href="#path-3"></use>
                        </mask>
                        <g id="Clip-27"></g>
                        <path d="M3.5449,1.3141 C2.3409,1.3141 1.6879,2.0311 1.5339,3.0941 L5.4019,3.0941 C5.2999,2.0311 4.6969,1.3141 3.5449,1.3141 M3.5319,0.2901 C5.5429,0.2901 6.6059,1.7501 6.6059,3.6451 L6.6059,3.9781 L1.4829,3.9781 L1.4829,3.9911 C1.5469,5.2971 2.4949,5.9751 3.5829,5.9751 C4.5189,5.9751 5.1709,5.5151 5.6199,4.9891 L6.1959,5.8481 C5.6839,6.4241 4.8259,7.0001 3.6349,7.0001 C1.7009,7.0001 0.3689,5.7191 0.3689,3.6961 C0.3689,1.8141 1.5979,0.2901 3.5319,0.2901" id="Fill-26" fill="#05a1c6" mask="url(#mask-4)"></path>
                    </g>
                    <path d="M56.082,22.4228 C56.3,22.4228 56.505,22.4478 56.709,22.4868 L56.709,23.6518 C56.492,23.6008 56.3,23.5748 56.069,23.5748 C54.635,23.5748 54.186,24.5488 54.186,25.9958 L54.186,28.9788 L53.085,28.9788 L53.085,22.5768 L54.148,22.5768 L54.148,23.5368 C54.545,22.8328 55.186,22.4228 56.082,22.4228" id="Fill-29" fill="#05a1c6"></path>
                    <path d="M63.9102,22.4228 C65.1782,22.4228 65.9712,22.9608 66.4452,23.8058 L65.5362,24.3818 C65.2672,23.8568 64.7682,23.4468 63.8852,23.4468 C63.1672,23.4468 62.6172,23.7418 62.6172,24.2538 C62.6172,24.8558 63.2702,25.0228 64.1402,25.2138 C65.2042,25.4448 66.4452,25.6748 66.4452,27.1478 C66.4452,28.5178 65.3822,29.1328 63.9872,29.1328 C62.7962,29.1328 61.6692,28.6838 61.1572,27.6348 L62.0662,27.0578 C62.4502,27.8518 63.2312,28.1078 64.0122,28.1078 C64.8452,28.1078 65.3442,27.8268 65.3442,27.2248 C65.3442,26.5838 64.7682,26.4438 63.9232,26.2638 C62.8732,26.0468 61.5152,25.7258 61.5152,24.3178 C61.5152,23.1908 62.4122,22.4228 63.9102,22.4228" id="Fill-31" fill="#05a1c6"></path>
                    <path d="M75.5941,22.4228 C77.3871,22.4228 78.0781,23.5618 78.0781,25.2908 L78.0781,28.9788 L76.9641,28.9788 L76.9641,25.1498 C76.9641,24.0488 76.4641,23.4468 75.4791,23.4468 C74.0191,23.4468 73.5841,24.5608 73.5841,25.9958 L73.5841,28.9788 L72.4821,28.9788 L72.4821,25.1498 C72.4821,24.0488 71.9701,23.4468 70.9711,23.4468 C69.5121,23.4468 69.1141,24.5868 69.1141,25.9958 L69.1141,28.9788 L68.0131,28.9788 L68.0131,22.5768 L69.0761,22.5768 L69.0761,23.4728 C69.4731,22.8198 70.1651,22.4228 71.1121,22.4228 C72.2001,22.4228 72.8671,22.9348 73.2121,23.6908 C73.7121,22.9348 74.3911,22.4228 75.5941,22.4228" id="Fill-33" fill="#05a1c6"></path>
                    <path d="M83.7354,25.9189 L81.6484,26.1749 C80.9314,26.2639 80.6114,26.6619 80.6114,27.1349 C80.6114,27.6859 81.0204,28.0699 81.8024,28.0699 C83.0184,28.0699 83.7354,27.1989 83.7354,26.3929 L83.7354,25.9189 Z M82.2634,22.4229 C84.0294,22.4229 84.8364,23.2929 84.8364,24.8169 L84.8364,28.9789 L83.7354,28.9789 L83.7354,28.0699 C83.3004,28.7229 82.5574,29.1069 81.6354,29.1069 C80.2524,29.1069 79.4584,28.2489 79.4584,27.1219 C79.4584,25.9309 80.3424,25.2659 81.5204,25.1499 L83.3254,24.9709 C83.6204,24.9449 83.7354,24.8429 83.7354,24.6249 L83.7354,24.4589 C83.7354,23.8309 83.2614,23.4089 82.3144,23.4089 C81.4304,23.4089 80.8024,23.7669 80.6624,24.5609 L79.6884,24.0359 C79.9324,23.0889 80.7134,22.4229 82.2634,22.4229 L82.2634,22.4229 Z" id="Fill-35" fill="#05a1c6"></path>
                    <path d="M89.6774,22.4228 C89.8954,22.4228 90.1004,22.4478 90.3044,22.4868 L90.3044,23.6518 C90.0874,23.6008 89.8954,23.5748 89.6644,23.5748 C88.2304,23.5748 87.7814,24.5488 87.7814,25.9958 L87.7814,28.9788 L86.6804,28.9788 L86.6804,22.5768 L87.7434,22.5768 L87.7434,23.5368 C88.1404,22.8328 88.7814,22.4228 89.6774,22.4228" id="Fill-37" fill="#05a1c6"></path>
                    <path d="M94.2839,29.0433 C93.1189,29.0433 92.5169,28.5433 92.5169,27.1863 L92.5169,23.5373 L91.2489,23.5373 L91.2489,22.5763 L92.5169,22.5763 L92.5169,20.8603 L93.6179,20.8603 L93.6179,22.5763 L95.3729,22.5763 L95.3729,23.5373 L93.6179,23.5373 L93.6179,27.2503 C93.6179,27.7363 93.8099,28.0183 94.3479,28.0183 C94.7579,28.0183 95.0399,27.9803 95.3849,27.9163 L95.3849,28.8893 C95.0529,28.9793 94.6939,29.0433 94.2839,29.0433" id="Fill-39" fill="#05a1c6"></path>
                </g>
            </g>
        </g>
    </g>
</svg>